<?xml version="1.0"?>
<svg xmlns="http://www.w3.org/2000/svg" id="Capa_1" enable-background="new 0 0 512 512" height="512px" viewBox="0 0 512 512" width="512px" class=""><g><path id="XMLID_389_" d="m204.16 313.71c-2.63 0-5.21 1.07-7.07 2.93s-2.93 4.44-2.93 7.07 1.07 5.21 2.93 7.07 4.44 2.93 7.07 2.93 5.21-1.07 7.07-2.93 2.93-4.44 2.93-7.07-1.07-5.21-2.93-7.07-4.44-2.93-7.07-2.93z" data-original="#000000" class="active-path" data-old_color="#000000" fill="#FFFFFF"/><path id="XMLID_390_" d="m269.18 268.69c2.63 0 5.21-1.07 7.07-2.93s2.93-4.44 2.93-7.07-1.07-5.21-2.93-7.07-4.44-2.93-7.07-2.93-5.21 1.07-7.07 2.93-2.93 4.44-2.93 7.07 1.07 5.21 2.93 7.07 4.44 2.93 7.07 2.93z" data-original="#000000" class="active-path" data-old_color="#000000" fill="#FFFFFF"/><path id="XMLID_404_" d="m139.14 268.69c2.63 0 5.21-1.07 7.07-2.93s2.93-4.44 2.93-7.07-1.07-5.21-2.93-7.07-4.44-2.93-7.07-2.93c-2.64 0-5.21 1.07-7.07 2.93-1.87 1.86-2.93 4.44-2.93 7.07s1.06 5.21 2.93 7.07c1.86 1.86 4.43 2.93 7.07 2.93z" data-original="#000000" class="active-path" data-old_color="#000000" fill="#FFFFFF"/><path id="XMLID_405_" d="m218.322 286.995c1.953 1.953 4.512 2.929 7.071 2.929s5.119-.977 7.071-2.929c3.905-3.905 3.906-10.237 0-14.142l-18.307-18.308v-60.881c0-5.523-4.477-10-10-10s-10 4.477-10 10v65.023c0 2.652 1.054 5.196 2.929 7.071z" data-original="#000000" class="active-path" data-old_color="#000000" fill="#FFFFFF"/><path id="XMLID_763_" d="m502.108 361.308-37.762-37.763c10.677-26.887 12.89-56.943 5.386-85.686-1.395-5.343-6.858-8.545-12.202-7.15s-8.545 6.858-7.15 12.202c10.506 40.246-1.237 83.517-30.646 112.928l-59.252 59.254c-26.229 26.23-61.102 40.675-98.195 40.675s-71.966-14.445-98.195-40.675l-3.578-3.578c14.09 4.015 28.755 6.097 43.644 6.097 33.211 0 65.025-10.141 92.002-29.326 22.203-15.79 39.722-36.662 51.33-60.92l.946.946c1.953 1.953 4.512 2.929 7.071 2.929s5.119-.977 7.071-2.929c3.905-3.905 3.906-10.237 0-14.142l-11.515-11.515c-22.677-22.678-24.551-58.517-4.36-83.365.818-1.006 1.529-2.074 2.156-3.178 4.233-2.35 6.251-7.486 4.531-12.173-6.237-16.997-15.224-32.619-26.58-46.37l-10.476-26.314c-7.483-18.798-3.789-39.875 9.642-55.005 1.779-2.004 4.336-3.08 7.007-2.939 2.675.135 5.107 1.458 6.674 3.631l41.036 56.889 25.827 35.295c1.959 2.677 4.998 4.095 8.079 4.095 2.049 0 4.117-.627 5.897-1.93 4.457-3.262 5.426-9.519 2.165-13.976l-25.787-35.24-40.996-56.834c-5.138-7.123-13.114-11.462-21.885-11.905-8.769-.435-17.145 3.069-22.975 9.637-15.943 17.961-21.904 42.011-16.63 64.883-14.345-9.915-30.015-17.304-46.506-22.009v-28.033h.164c17.08 0 30.975-13.896 30.975-30.976s-13.896-30.975-30.975-30.975h-81.422c-13.123 0-24.358 8.207-28.862 19.755l-23.51-23.51c-7.806-7.808-18.188-12.108-29.23-12.108s-21.423 4.3-29.23 12.108c-16.117 16.118-16.117 42.344 0 58.462l31.166 31.167c-7.24 1.779-13.883 5.501-19.289 10.908-12.883 12.883-15.457 32.22-7.744 47.695-8.207 1.485-15.764 5.41-21.787 11.433-15.943 15.943-16.105 41.771-.506 57.928-6.963 1.844-13.35 5.491-18.58 10.72-16.117 16.118-16.117 42.343 0 58.46l19.216 19.217c6.503 6.504 14.794 10.563 23.763 11.742 7.712 15.387 17.828 29.349 29.938 41.413l57.981 57.983c30.006 30.008 69.902 46.534 112.337 46.534 23.058 0 45.362-4.89 65.742-14.16l47.461 47.462c1.953 1.953 4.512 2.929 7.071 2.929s5.119-.977 7.071-2.929c3.905-3.905 3.906-10.237 0-14.142l-43.209-43.21c10.102-6.331 19.563-13.846 28.202-22.484l59.252-59.254c8.292-8.292 15.371-17.534 21.187-27.433l32.901 32.902c1.953 1.953 4.512 2.929 7.071 2.929s5.119-.977 7.071-2.929c3.906-3.906 3.906-10.238.001-14.143zm-297.95 36.304c-50.129 0-96.413-27.336-120.909-70.501 4.982-2.052 9.557-5.088 13.482-9.013 1.491-1.491 2.842-3.07 4.058-4.718 19.662 37.014 58.617 62.282 103.37 62.282 54.83 0 100.961-37.926 113.561-88.92 3.301 9.029 8.23 17.585 14.766 25.23-21.394 51.46-72.224 85.64-128.328 85.64zm0-277.848c54.32 0 103.716 32.054 126.213 80.81l1.273 3.092c.412 1 .235 2.154-.461 3.011-5.949 7.321-10.439 15.367-13.508 23.778-12.663-50.904-58.751-88.741-113.517-88.741-16.144 0-32.088 3.353-46.764 9.748-1.841-6.641-5.357-12.911-10.567-18.122l-.836-.836c18.139-8.359 38.006-12.74 58.167-12.74zm-57.332 72.037c5.196-5.196 8.706-11.445 10.552-18.064 14.251-7.862 30.387-12.022 46.78-12.022 53.469 0 96.97 43.502 96.97 96.973 0 53.472-43.5 96.974-96.97 96.974s-96.97-43.502-96.97-96.974c0-1.159.029-2.324.07-3.486 2.89-1.733 5.587-3.833 8.032-6.278 12.285-12.285 15.194-30.439 8.752-45.517 8.592-1.338 16.518-5.339 22.784-11.606zm81.058-92.037h-41.094v-21.95h41.094zm-61.259-63.9h81.422c6.052 0 10.975 4.924 10.975 10.976 0 6.051-4.923 10.975-10.975 10.975h-10.164-61.093-10.165c-6.051 0-10.975-4.924-10.975-10.976.001-6.052 4.924-10.975 10.975-10.975zm-96.691-9.614c4.03-4.03 9.389-6.25 15.088-6.25 5.7 0 11.058 2.22 15.088 6.25l65.339 65.341c.419.419.871.784 1.34 1.114v11.517c-12.388 2.989-24.387 7.466-35.723 13.341l-61.132-61.134c-8.319-8.321-8.319-21.859 0-30.179zm11.877 100.537c4.03-4.031 9.389-6.25 15.089-6.25s11.059 2.22 15.089 6.25l20.695 20.695c8.319 8.32 8.319 21.857 0 30.177-4.03 4.03-9.389 6.25-15.089 6.25s-11.059-2.22-15.089-6.25l-20.695-20.695c-8.32-8.32-8.32-21.857 0-30.177zm-29.531 59.128c4.03-4.031 9.389-6.25 15.089-6.25s11.059 2.22 15.089 6.25l18.69 18.69c8.319 8.32 8.319 21.857 0 30.177-4.03 4.031-9.389 6.25-15.089 6.25-4.375 0-8.543-1.319-12.07-3.75-.525-.419-1.059-.824-1.602-1.215-.486-.408-.962-.831-1.417-1.285l-18.69-18.691c-8.32-8.319-8.32-21.856 0-30.176zm-19.086 98.825c-8.319-8.32-8.319-21.857 0-30.177 4.03-4.031 9.389-6.25 15.089-6.25 4.379 0 8.55 1.321 12.079 3.756.522.416 1.053.819 1.593 1.208.487.408.963.831 1.417 1.286l19.216 19.217c8.32 8.32 8.32 21.857 0 30.177-4.03 4.031-9.389 6.25-15.089 6.25s-11.058-2.22-15.088-6.25z" data-original="#000000" class="active-path" data-old_color="#000000" fill="#FFFFFF"/><path id="XMLID_1244_" d="m441.17 209.54c2.63 0 5.21-1.07 7.07-2.93s2.93-4.44 2.93-7.07-1.07-5.21-2.93-7.07-4.44-2.93-7.07-2.93c-2.64 0-5.21 1.07-7.08 2.93-1.86 1.86-2.92 4.44-2.92 7.07s1.06 5.21 2.92 7.07c1.87 1.86 4.45 2.93 7.08 2.93z" data-original="#000000" class="active-path" data-old_color="#000000" fill="#FFFFFF"/></g> </svg>
